# xmcd
# 
# Track frame offsets:
#     150
#     16131
#     35806
#     58559
#     81091
#     101219
#     116882
#     135681
#     159960
#     181541
# 
# Disc length: 2679
# 
# Revision: 6
# Processed by: cddbd v1.5.2PL0 Copyright (c) Steve Scherf et al.
# Submitted via: fre:ac v1.0.31
# 
DISCID=7b0a750a
DTITLE=Chris Rea - Blue Guitars - [07 Blues Ballads]
DYEAR=2005
DGENRE=Blues
TTITLE0=Last Call (Blues Ballads)
TTITLE1=Maybe That's All I Need To Know
TTITLE2=Deep Winter Blues
TTITLE3=If I Ever Get Over You
TTITLE4=I Love The Rain
TTITLE5=My Soul Crying Out For You
TTITLE6=If That's What You Want
TTITLE7=There's No One Looking
TTITLE8=What Became Of You
TTITLE9=My Deep Blue Ways
EXTD=CD 2005 - CD 07/11\nJazzee Blue/EarBooks - edel records 9 783937 406329
EXTT0=
EXTT1=
EXTT2=
EXTT3=
EXTT4=
EXTT5=
EXTT6=
EXTT7=
EXTT8=
EXTT9=
PLAYORDER=
